<?xml version="1.0" encoding="utf-8"?>
<!-- Generator: Adobe Illustrator 24.3.0, SVG Export Plug-In . SVG Version: 6.00 Build 0)  -->
<svg version="1.1" id="Layer_1" xmlns="http://www.w3.org/2000/svg" xmlns:xlink="http://www.w3.org/1999/xlink" x="0px" y="0px"
	 viewBox="0 0 433.63 105.75" style="enable-background:new 0 0 433.63 105.75;" xml:space="preserve">
<style type="text/css">
	.st0{opacity:0.3;fill:#27AAE1;}
	.st1{fill:#FFFFFF;stroke:#FFFFFF;stroke-miterlimit:10;}
</style>
<rect x="8.89" y="5.99" class="st0" width="100.89" height="71.66"/>
<g>
	<path d="M31.7,57.54c-2.24,1.75-5.88,3.99-10.29,3.99c-6.02,0-8.96-3.64-8.96-8.82c0-6.37,5.53-9.52,14.63-9.52h4.13v-3.85
		c0-4.76-2.73-5.81-6.23-5.81c-3.36,0-8.12,1.05-10.78,2.03v-4.69c2.52-1.12,7.84-2.03,11.69-2.03c5.74,0,10.57,2.38,10.57,9.31
		V53.9l1.19,7.07h-5.32L31.7,57.54z M31.21,53.62v-6.3h-5.18c-5.53,0-8.26,1.4-8.26,4.97c0,3.01,1.4,4.76,4.48,4.76
		C25.19,57.05,28.48,55.51,31.21,53.62z"/>
	<path d="M46.11,59.85V15.26h5.25v16.52c2.87-1.68,6.09-2.94,9.59-2.94c7.49,0,11.48,5.81,11.48,14.91
		c0,11.9-6.44,17.78-15.33,17.78C53.67,61.53,50.59,61.04,46.11,59.85z M51.36,35.91v20.3c2.03,0.35,4.41,0.63,6.37,0.63
		c7.42,0,9.1-5.74,9.1-12.11c0-7.49-2.31-11.2-7.63-11.2C56.47,33.53,53.67,34.79,51.36,35.91z"/>
	<path d="M88.95,49.21l-3.57,3.85l10.01,1.12c8.47,0.98,11.06,4.41,11.06,9.1c0,6.37-6.02,12.67-15.75,12.67
		c-8.19,0-13.23-3.78-13.23-9.45c0-3.71,3.15-6.51,6.58-8.47l-4.06-0.49v-4.06l5.18-5.18c-3.64-1.47-5.81-4.41-5.81-8.82
		c0-4.83,4.62-10.64,12.04-10.64c2.8,0,5.25,0.56,7.14,1.61l9.17-1.19v4.34h-6.02c0.84,1.47,1.33,3.29,1.33,5.46
		c0,4.83-5.18,10.29-11.62,10.29C90.56,49.35,89.72,49.28,88.95,49.21z M91.47,71.54c6.02,0,9.8-3.64,9.8-7.21
		c0-2.94-1.26-4.41-8.05-5.25l-4.34-0.49c-3.64,1.89-6.23,4.55-6.23,7.14C82.65,68.67,85.17,71.54,91.47,71.54z M97.63,39.2
		c0-3.78-2.52-6.09-6.65-6.09c-3.92,0-6.23,2.24-6.23,5.88c0,4.2,2.87,6.3,6.65,6.3C95.04,45.29,97.63,42.77,97.63,39.2z"/>
</g>
<rect x="163.82" y="5.99" class="st0" width="263.99" height="71.66"/>
<g>
	<path d="M192.43,67.85l-0.77-4.27c-2.8,2.17-7.35,4.97-12.88,4.97c-7.49,0-11.2-4.55-11.2-11.06c0-7.91,6.93-11.9,18.27-11.9h5.18
		v-4.76c0-5.95-3.43-7.28-7.77-7.28c-4.2,0-10.15,1.33-13.51,2.52v-5.88c3.15-1.4,9.8-2.52,14.63-2.52
		c7.21,0,13.23,3.01,13.23,11.62v19.74l1.47,8.82H192.43z M179.83,62.95c3.71,0,7.77-1.96,11.2-4.27v-7.91h-6.44
		c-6.93,0-10.36,1.75-10.36,6.23C174.23,60.78,175.98,62.95,179.83,62.95z"/>
	<path d="M242.55,46.29c0,14.91-8.05,22.26-19.18,22.26c-4.27,0-8.12-0.63-13.72-2.1V10.72h6.58v20.65
		c3.57-2.1,7.56-3.71,11.97-3.71C237.58,27.67,242.55,34.95,242.55,46.29z M235.55,47.55c0-9.38-2.87-14-9.52-14
		c-3.36,0-6.86,1.54-9.8,2.94V61.9c2.52,0.42,5.53,0.77,7.98,0.77C233.45,62.67,235.55,55.53,235.55,47.55z"/>
	<path d="M286.72,33.62h-7.56c1.12,1.89,1.68,4.13,1.68,6.86c0,6.02-6.51,12.81-14.56,12.81c-1.05,0-2.03-0.07-3.01-0.14l-4.48,4.83
		l12.53,1.4c10.57,1.19,13.79,5.46,13.79,11.34c0,7.98-7.49,15.82-19.67,15.82c-10.22,0-16.52-4.69-16.52-11.76
		c0-4.62,3.85-8.12,8.19-10.64l-5.04-0.56v-5.11l6.51-6.51c-4.62-1.82-7.35-5.46-7.35-10.99c0-6.02,5.81-13.3,15.05-13.3
		c3.5,0,6.51,0.7,8.89,2.03l11.55-1.47V33.62z M268.59,65.47l-5.39-0.63c-4.62,2.45-7.84,5.74-7.84,8.96
		c0,3.64,3.15,7.28,11.06,7.28c7.49,0,12.25-4.55,12.25-9.03C278.67,68.34,277.06,66.52,268.59,65.47z M274.12,40.62
		c0-4.69-3.15-7.63-8.33-7.63c-4.9,0-7.77,2.8-7.77,7.35c0,5.25,3.57,7.91,8.26,7.91C270.83,48.25,274.12,45.1,274.12,40.62z"/>
	<path d="M331.59,27.38h-41.3v-5.46h41.3V27.38z M311.64,53.64c-9.31,0-15.33-4.41-15.33-10.85c0-6.44,6.02-10.85,15.33-10.85
		c9.38,0,15.4,4.41,15.4,10.85C327.04,49.23,321.02,53.64,311.64,53.64z M325.08,15.69h-26.74v-5.25h26.74V15.69z M311.64,48.6
		c5.95,0,9.38-2.24,9.38-5.81s-3.43-5.81-9.38-5.81c-5.88,0-9.31,2.24-9.31,5.81S305.76,48.6,311.64,48.6z M310.52,68.13h37.87v5.67
		h-44.1V56.3h6.23V68.13z M357.14,33.62v5.6h-11.55v18.83h-6.16V7.64h6.16v25.97H357.14z"/>
	<path d="M426.09,33.41v5.67h-66.51v-5.67h45.37c1.26-5.32,2.17-10.71,2.59-17.15h-37.31v-5.74h43.82
		c-0.49,9.1-1.68,16.24-3.29,22.89H426.09z M378.07,69.11h39.83v5.39h-46.13V57.42h35.63v-6.3h-36.82V45.8h43.12v16.73h-35.63V69.11
		z"/>
</g>
<line class="st1" x1="41.4" y1="0" x2="41.4" y2="94.44"/>
<line class="st1" x1="74.99" y1="0" x2="74.99" y2="94.44"/>
<line class="st1" x1="203.85" y1="0" x2="203.85" y2="94.44"/>
<line class="st1" x1="246.41" y1="0" x2="246.41" y2="94.44"/>
<line class="st1" x1="288.98" y1="0" x2="288.98" y2="94.44"/>
<line class="st1" x1="358.48" y1="0" x2="358.48" y2="94.44"/>
<g>
	<path d="M16.86,95.68v1.13h-6.81v-1.13h2.84v-8.19l-2.61,0.46v-1.09l3.22-0.98h0.76v9.81H16.86z"/>
	<path d="M18.23,91.51c0-3.46,1.37-5.79,3.84-5.79c2.77,0,3.74,2.48,3.74,5.48c0,3.53-1.47,5.76-3.88,5.76
		C19.38,96.96,18.23,94.88,18.23,91.51z M24.46,91.27c0-2.35-0.87-4.4-2.55-4.4c-1.64,0-2.34,2.09-2.34,4.57
		c0,2.66,0.83,4.4,2.45,4.4C23.75,95.83,24.46,93.9,24.46,91.27z"/>
	<path d="M26.98,91.51c0-3.46,1.37-5.79,3.84-5.79c2.77,0,3.74,2.48,3.74,5.48c0,3.53-1.47,5.76-3.88,5.76
		C28.13,96.96,26.98,94.88,26.98,91.51z M33.21,91.27c0-2.35-0.87-4.4-2.55-4.4c-1.64,0-2.34,2.09-2.34,4.57
		c0,2.66,0.83,4.4,2.45,4.4C32.5,95.83,33.21,93.9,33.21,91.27z"/>
	<path d="M35.42,88.63c0-1.78,0.98-2.91,2.35-2.91c1.34,0,2.34,0.95,2.34,2.86c0,1.76-0.99,2.83-2.34,2.83
		C36.4,91.41,35.42,90.47,35.42,88.63z M38.96,88.68c0-1.54-0.46-2.03-1.25-2.03c-0.77,0-1.15,0.49-1.15,1.95
		c0,1.33,0.5,1.93,1.27,1.93C38.53,90.53,38.96,90.02,38.96,88.68z M39.09,96.82h-1.26v-0.38l2.35-3.96h1.11L39.09,96.82z
		 M43.66,85.89h1.25v0.36l-2.35,3.6h-1.11L43.66,85.89z M42.32,94.18c0-1.78,0.99-2.91,2.35-2.91c1.34,0,2.35,0.95,2.35,2.86
		c0,1.74-1.01,2.83-2.35,2.83C43.32,96.96,42.32,96,42.32,94.18z M45.87,94.21c0-1.54-0.45-2.03-1.26-2.03
		c-0.77,0-1.12,0.67-1.12,1.96c0,1.33,0.49,1.93,1.25,1.93C45.46,96.07,45.87,95.57,45.87,94.21z"/>
</g>
<g>
	<path d="M171.09,95.68v1.13h-6.81v-1.13h2.84v-8.19l-2.61,0.46v-1.09l3.22-0.98h0.76v9.81H171.09z"/>
	<path d="M179.85,95.68v1.13h-7.24v-0.92c2.68-2.24,5.39-4.93,5.39-6.99c0-1.23-1.01-1.98-2.16-1.98c-0.85,0-1.76,0.15-2.89,1.08
		v-1.32c0.77-0.64,1.99-0.97,3.07-0.97c1.83,0,3.38,1.01,3.38,3.1c0,2.06-2.45,4.88-4.87,6.86H179.85z"/>
	<path d="M188.2,93.43c0,2.21-2.07,3.53-3.8,3.53c-1.18,0-2.02-0.27-2.62-0.46v-1.4c0.91,0.45,1.83,0.67,2.75,0.67
		c1.18,0,2.3-0.94,2.3-2.16c0-1.55-1.15-2.27-3.32-2.27c-0.41,0-0.85,0.04-1.32,0.08l0.49-5.55h5.29v1.13h-4.23l-0.28,3.18
		c0.14-0.01,0.31-0.01,0.49-0.01C186.53,90.18,188.2,91.18,188.2,93.43z"/>
	<path d="M189.65,88.63c0-1.78,0.98-2.91,2.35-2.91c1.34,0,2.34,0.95,2.34,2.86c0,1.76-0.99,2.83-2.34,2.83
		C190.63,91.41,189.65,90.47,189.65,88.63z M193.19,88.68c0-1.54-0.46-2.03-1.25-2.03c-0.77,0-1.15,0.49-1.15,1.95
		c0,1.33,0.5,1.93,1.27,1.93C192.76,90.53,193.19,90.02,193.19,88.68z M193.32,96.82h-1.26v-0.38l2.35-3.96h1.11L193.32,96.82z
		 M197.88,85.89h1.25v0.36l-2.35,3.6h-1.11L197.88,85.89z M196.55,94.18c0-1.78,0.99-2.91,2.35-2.91c1.34,0,2.35,0.95,2.35,2.86
		c0,1.74-1.01,2.83-2.35,2.83C197.55,96.96,196.55,96,196.55,94.18z M200.1,94.21c0-1.54-0.45-2.03-1.26-2.03
		c-0.77,0-1.12,0.67-1.12,1.96c0,1.33,0.49,1.93,1.25,1.93C199.69,96.07,200.1,95.57,200.1,94.21z"/>
</g>
</svg>
